<?xml version="1.0" encoding="UTF-8"?>
<!DOCTYPE svg PUBLIC "-//W3C//DTD SVG 1.0//EN" "http://www.w3.org/TR/2001/REC-SVG-20010904/DTD/svg10.dtd">
<!-- Creator: CorelDRAW 2020 (64 Bit) -->
<svg xmlns="http://www.w3.org/2000/svg" xml:space="preserve" width="24.5575mm" height="43.6689mm" version="1.0" style="shape-rendering:geometricPrecision; text-rendering:geometricPrecision; image-rendering:optimizeQuality; fill-rule:evenodd; clip-rule:evenodd"
viewBox="0 0 415.13 738.2"
 xmlns:xlink="http://www.w3.org/1999/xlink"
 xmlns:xodm="http://www.corel.com/coreldraw/odm/2003">
 <defs>
  <style type="text/css">
   <![CDATA[
    .fil0 {fill:white}
   ]]>
  </style>
 </defs>
 <g id="Camada_x0020_1">
  <metadata id="CorelCorpID_0Corel-Layer"/>
  <g id="_1876090585392">
   <path class="fil0" d="M-0 207.62c0,46.67 61.72,94.02 113.56,42.91 18.72,-18.46 15.6,-36 17.99,-54.1 1.34,-10.17 4.54,-17.4 8.77,-25.83 7.46,-14.86 21.77,-28.16 37.61,-34.48 54.56,-21.8 106.11,20.51 106.11,67.19 0,41.73 -24.77,73.72 -66.22,79.4 -17.78,2.44 -36.61,1.45 -52.4,16.81 -11.79,11.47 -22.68,23.95 -22.68,46.53l0 154.27c0,54.09 70.6,82.02 107.09,46.53 11.5,-11.19 16.22,-16.7 20.98,-33.8 4.41,-15.83 1.69,-86.35 1.69,-109.33 4.05,-1.94 10.53,-3.89 14.64,-5.54 32.45,-13.04 62.85,-36.96 84.23,-64.27 55.93,-71.45 57.49,-165.34 8.98,-241.34l-23.15 -28.75c-35.51,-35.2 -85.55,-63.8 -140.94,-63.8 -40.18,0 -64.49,3.35 -98.04,20.18 -27.88,13.98 -37.57,21.03 -59.47,42.9 -31.32,31.26 -58.75,82.48 -58.75,144.54z"/>
   <path class="fil0" d="M142.74 670.44c0,22.27 4.48,34.15 18.38,47.95 11.86,11.78 26.4,18.39 41.1,19.82l12.14 0c13.99,-1.37 27.51,-7.49 38.32,-18.38 20.67,-20.8 25.74,-48.94 13.6,-74.9 -8.62,-18.45 -30.57,-36.49 -55.78,-36.49 -38.47,0 -67.76,27.33 -67.76,62z"/>
  </g>
 </g>
</svg>
