<?xml version="1.0" encoding="UTF-8"?>
<!DOCTYPE svg PUBLIC "-//W3C//DTD SVG 1.0//EN" "http://www.w3.org/TR/2001/REC-SVG-20010904/DTD/svg10.dtd">
<!-- Creator: CorelDRAW 2020 (64 Bit) -->
<svg xmlns="http://www.w3.org/2000/svg" xml:space="preserve" width="14.0611mm" height="14.0341mm" version="1.0" style="shape-rendering:geometricPrecision; text-rendering:geometricPrecision; image-rendering:optimizeQuality; fill-rule:evenodd; clip-rule:evenodd"
viewBox="0 0 81.16 81.01"
 xmlns:xlink="http://www.w3.org/1999/xlink"
 xmlns:xodm="http://www.corel.com/coreldraw/odm/2003">
 <defs>
  <style type="text/css">
   <![CDATA[
    .fil1 {fill:black}
    .fil0 {fill:red}
    .fil2 {fill:#FFE6B3}
    .fil3 {fill:#FFFEFE}
   ]]>
  </style>
 </defs>
 <g id="Camada_x0020_1">
  <metadata id="CorelCorpID_0Corel-Layer"/>
  <g id="_2548305704448">
   <path class="fil0" d="M13.64 10.2c2.61,0.19 13.12,-0.42 14.55,0.16 0.52,0.45 0.21,5.54 0.04,6.05l-8.65 0.23c-0.26,0.79 -0.18,1.9 -0.09,2.78 1.24,0.34 5.81,-0.52 8.3,-0 0.17,1.92 0.32,4.66 -0.26,6.18 -0.08,0.21 -3.4,0.25 -3.82,0.27 -1.41,0.07 -2.8,0.06 -4.21,0.11 0.06,1.71 0.48,7.73 -0.09,8.93 -1.26,0.12 -8.51,0.27 -9.37,0.03 -0.56,-1.27 -0.21,-17.86 -0.17,-20.65 -0.74,0.38 -1.75,1.85 -2.26,2.6l-1.95 3c-0.62,1.02 -1.18,1.97 -1.69,3.07l-1.46 3.49c-3.71,11.01 -3.52,21.6 1.77,32.19 1.06,2.12 2.32,4.14 3.72,6 0.76,1.02 1.39,1.78 2.2,2.75 3.51,4.2 9.01,7.98 14.12,10.25 4.49,2 9.18,3.1 13.88,3.36l4.49 0c8.3,-0.47 16.4,-3.51 23.17,-8.8 0.78,-0.61 2.13,-1.63 2.56,-2.45 -4.61,0.1 -8.85,-0.77 -12.33,1.67 -3.67,2.57 -5.09,3.31 -10.77,3.13 -4.86,-0.16 -8.2,0.43 -12.23,-1.64 -1.09,-0.56 -3.18,-2.22 -3.89,-3.08 -1.2,-1.46 -1.7,-2.4 -2.55,-4.43 -6.71,2.17 -14.51,0.96 -17.1,-5.81 -1.52,-3.97 -1.33,-10.34 0.94,-13.6l1.41 -1.72c2.55,-2.58 5.96,-3.74 9.79,-3.73 3.12,0.01 4.31,0.58 6.78,1.61 0.98,-0.32 1.32,-0.88 2.71,-1.13 2.07,-0.37 1.16,-0.43 2.27,-1.77 1.52,-1.83 2.91,-1.94 5.83,-2.22 0.41,-0.36 0.36,-0.46 0.93,-0.92 1.74,-1.41 2.18,-1.23 3.74,-1.8 -0.52,-0.94 -0.42,-2.3 -1,-3.22l-6.8 0.02c-0.1,0.58 -0.61,3.37 -1.15,3.71 -0.56,0.23 -8.37,0.35 -9.02,0.1 -0.14,-1.72 6.72,-21.2 7.74,-24.68 2.06,0.08 11.01,-0.29 12.05,0.09 0.07,0.1 0.11,0.15 0.21,0.37 0.74,1.63 4.66,14 4.78,14.55 3.3,-1.16 2.37,-1.31 6.38,-0.96 0.39,-0.67 0.89,-1.23 1.44,-1.89l4.69 -5.85c-1.61,0.03 -8.41,0.32 -9.43,0.03l-0.18 -6.07c2.69,-0.17 12.23,0.27 13.88,-0.27 -1.85,-2.27 -8.27,-5.89 -11.38,-7.17 -4.46,-1.85 -8.89,-2.85 -13.3,-3.09l-4.11 0c-5.08,0.27 -10.14,1.55 -15.19,3.72 -0.68,0.29 -1,0.38 -1.62,0.76 -1.06,0.64 -2.03,1.1 -3.01,1.75 -2.3,1.53 -2.65,1.74 -4.64,3.43 -0.37,0.32 -0.35,0.2 -0.67,0.54z"/>
   <path class="fil1" d="M69.73 66.27c2.55,0.02 3.8,-0.05 3.07,-3 -0.34,-1.39 -1.54,-3.08 -2.67,-3.56 -3.04,-1.31 -7.75,1.06 -10.59,-1.87 -2.14,-2.21 -1.52,-7.79 -1.41,-11.28 0.12,-4.05 0.17,-8.23 0.16,-12.28 -0.01,-3.16 0.54,-5.76 -1.87,-6.68 -1.84,-0.7 -4.12,-0.1 -4.69,1.51 -0.38,1.06 -0.28,11.04 -0.27,13.05 -0.04,3.06 0.43,8.63 -1.61,10.73 -1.86,1.91 -3.78,1.23 -5.11,1.32 -0.61,1.28 -1.32,2.2 -2.92,2.74 -0.81,0.27 -1.76,0.36 -2.67,0.2 -0.91,-0.17 -1.38,-0.61 -1.99,-0.78 -0.73,-0.2 -1.16,0.39 -2.02,0.71 -1.44,0.54 -3.17,0.28 -4.48,-0.59 -0.79,-0.52 -0.78,-1.17 -1.58,-0.97 0.25,4.86 -0.48,8.4 2.33,11.76 3.4,4.06 7.3,3.82 12.47,3.78 4.21,-0.03 6.07,0.49 9.71,-2.32 4.23,-3.27 10.87,-2.5 16.13,-2.46z"/>
   <path class="fil0" d="M62.1 35c-0.02,4.56 -0.4,15.75 -0.17,19.42 0.17,2.71 3.91,1.35 8.06,1.8 1.89,0.21 3.64,1.42 4.7,2.77 0.22,0.28 0.29,0.38 0.52,0.76l0.47 0.7c0.02,0.03 0.06,0.08 0.09,0.11 1.38,-1.42 3.52,-7.61 4.07,-9.75 2.36,-9.19 1.49,-18.01 -2.13,-26.72 -0.89,-2.14 -2.51,-4.82 -3.77,-6.67 -0.36,0.41 -0.75,0.98 -1.12,1.43l-3.59 4.11c-0.73,1.01 -4.31,4.94 -4.52,5.55l10.11 -0.06c0.29,1.01 0.48,5.46 0.05,6.15 -0.32,0.3 0.08,0.18 -0.61,0.31 -0.11,0.02 -0.53,0.02 -0.67,0.02 -0.55,-0 -1.11,-0.01 -1.66,-0l-9.83 0.08z"/>
   <path class="fil2" d="M36.96 25.91c0.29,-2.69 1.78,-8.31 2.63,-10.7 0.58,0.22 0.66,0.29 0.86,1.06 0.57,2.11 1.75,7.84 1.9,9.63l-5.39 0.01zm7 8.42c0.76,0.09 1.41,0.02 2.23,0.2 0.75,0.16 1.2,0.5 2.03,0.48 0.22,-1.92 -0.26,-4.16 0.16,-5.95 0.67,-2.88 1.78,-2.99 2.4,-3.79 -0.12,-0.55 -4.04,-12.92 -4.78,-14.55 -0.1,-0.22 -0.14,-0.27 -0.21,-0.37 -1.03,-0.39 -9.99,-0.01 -12.05,-0.09 -1.01,3.48 -7.88,22.96 -7.74,24.68 0.65,0.25 8.46,0.13 9.02,-0.1 0.53,-0.33 1.05,-3.13 1.15,-3.71l6.8 -0.02c0.58,0.92 0.48,2.28 1,3.22z"/>
   <path class="fil2" d="M9.89 14.3c-0.04,2.8 -0.4,19.38 0.17,20.65 0.86,0.24 8.11,0.08 9.37,-0.03 0.57,-1.2 0.15,-7.22 0.09,-8.93 1.42,-0.06 2.8,-0.05 4.21,-0.11 0.42,-0.02 3.74,-0.06 3.82,-0.27 0.57,-1.52 0.43,-4.26 0.26,-6.18 -2.49,-0.52 -7.06,0.35 -8.3,0 -0.09,-0.88 -0.18,-1.99 0.09,-2.78l8.65 -0.23c0.17,-0.52 0.48,-5.61 -0.04,-6.05 -1.42,-0.58 -11.93,0.03 -14.55,-0.16 -0.88,0.12 -3.16,-0.29 -3.69,0.23 -0.48,0.48 -0.22,3.09 -0.07,3.87z"/>
   <path class="fil1" d="M49.75 40.43c0.64,-1.13 -0.07,-8.9 0.3,-11.01 0.84,-4.88 9.26,-4.68 9.8,0.27l-0.17 16.5c0,2.67 -0.63,8.54 0.72,10.42 1.74,2.41 6.56,0.8 9.61,1.57 2.3,0.58 4.7,3.64 4.41,6.65 -0.35,3.64 -3.58,2.86 -8.36,2.85 -3.86,-0.01 -6.88,-0.33 -10.08,1.23 -1.83,0.9 -3.96,3.51 -7.69,3.52 -3.08,0.01 -8.14,0.21 -11.01,-0.18 -4.39,-0.59 -7.77,-4.12 -9.04,-7.86 -1,-2.94 -0.54,-12.05 -0.54,-15.83 0,-1.94 0.25,-3.2 1.33,-4.4 1.34,-1.49 1.94,-1.09 4.01,-1.52 0.82,-0.17 0.77,-1.02 1.24,-1.66 0.2,-0.27 1.1,-1.17 1.38,-1.36 1.72,-1.18 2.64,-0.5 4.29,-0.49 0.88,-0.93 2.07,-3.48 5.54,-2.83 1.2,0.22 2.09,0.85 2.71,1.52 0.92,1 0.92,1.85 1.53,2.61zm1.03 -15.16c-0.62,0.8 -1.73,0.9 -2.4,3.79 -0.42,1.79 0.07,4.03 -0.16,5.95 -0.82,0.02 -1.28,-0.32 -2.03,-0.48 -0.81,-0.18 -1.47,-0.12 -2.23,-0.2 -1.56,0.57 -2,0.39 -3.74,1.8 -0.57,0.46 -0.52,0.56 -0.93,0.92 -2.92,0.27 -4.31,0.39 -5.83,2.22 -1.11,1.34 -0.2,1.4 -2.27,1.77 -1.39,0.25 -1.73,0.81 -2.71,1.13 -0.99,1.3 -1.99,1.91 -2.38,4.4 -0.26,1.7 -0.13,4.74 -0.13,6.59 -0.01,4.15 -0.68,8.51 0.7,12.25 0.85,2.03 1.35,2.97 2.55,4.43 0.71,0.86 2.79,2.52 3.89,3.08 4.03,2.08 7.38,1.49 12.23,1.64 5.67,0.18 7.1,-0.56 10.77,-3.13 3.48,-2.44 7.72,-1.56 12.33,-1.67 4.35,0.65 8.23,-0.38 8.26,-5.43 0.01,-2.18 -0.52,-2.4 -0.93,-3.77 -0.03,-0.04 -0.07,-0.09 -0.09,-0.11l-0.47 -0.7c-0.23,-0.38 -0.3,-0.48 -0.52,-0.76 -1.07,-1.35 -2.81,-2.56 -4.7,-2.77 -4.16,-0.45 -7.89,0.91 -8.06,-1.8 -0.23,-3.67 0.15,-14.86 0.17,-19.42 0.08,-6.4 0.55,-8.55 -4.94,-10.69 -4.01,-0.35 -3.09,-0.2 -6.38,0.96z"/>
   <path class="fil2" d="M57.16 24.32c5.48,2.13 5.01,4.29 4.94,10.69l9.83 -0.08c0.55,-0 1.11,0 1.66,0 0.13,0 0.56,0 0.67,-0.02 0.69,-0.13 0.28,-0 0.61,-0.31 0.43,-0.69 0.24,-5.14 -0.05,-6.15l-10.11 0.06c0.21,-0.61 3.79,-4.54 4.52,-5.55l3.59 -4.11c0.37,-0.45 0.76,-1.02 1.12,-1.43 0.56,-1.07 0.75,-1.29 0.74,-2.93 -0.03,-5.14 1.36,-4.22 -7.11,-4.22 -1.65,0.54 -11.19,0.1 -13.88,0.27l0.18 6.07c1.02,0.28 7.82,-0 9.43,-0.03l-4.69 5.85c-0.56,0.66 -1.05,1.22 -1.44,1.89z"/>
   <path class="fil2" d="M24.73 55.72c-0.34,4.77 -3.4,5.69 -5.19,4.55 -2.67,-1.7 -2.01,-11 -0.35,-12.74 0.87,-0.91 2.57,-1.43 3.86,-0.47 2.07,1.53 1.88,5.77 1.68,8.67zm1.95 9.68c-1.37,-3.74 -0.7,-8.1 -0.7,-12.25 0,-1.85 -0.13,-4.89 0.13,-6.59 0.39,-2.49 1.38,-3.11 2.38,-4.4 -2.47,-1.04 -3.66,-1.6 -6.78,-1.61 -3.84,-0.02 -7.25,1.15 -9.79,3.73l-1.41 1.72c-2.27,3.26 -2.46,9.63 -0.94,13.6 2.6,6.77 10.39,7.97 17.1,5.81z"/>
   <path class="fil3" d="M40.95 41.3c0.18,-0.31 1.05,-4.92 4.95,-3.36 2.12,0.84 2.25,3.01 2.79,5.64 0.37,1.81 1.43,5.45 0.83,7.15 -0.86,2.47 -3.35,2.54 -5.64,1.25 -0.02,0.05 -0.04,0.11 -0.05,0.15l-0.1 0.31c-0,0.01 -0.07,0.29 -0.08,0.31 -0.15,0.62 -0.25,1.15 -0.68,1.69 -0.36,0.45 -1.08,1.07 -1.84,1.28 -2.68,0.75 -3.47,-1.31 -4.39,-1.66 -0.37,0.35 -1.68,2.98 -4.8,1.52 -1.69,-0.79 -1.97,-2.33 -2.36,-4.61 -0.34,-2 -1.26,-4.05 0.18,-5.7 0.47,-0.54 1.19,-1.21 2.21,-1.32 1.62,-0.17 1.97,0.52 2.86,0.55 -0.04,-1.98 0.58,-3.37 1.93,-3.96 0.7,-0.31 1.6,-0.4 2.38,-0.23 1.05,0.23 1.12,0.62 1.81,1zm28.77 24.96c-5.26,-0.04 -11.9,-0.81 -16.13,2.46 -3.64,2.81 -5.5,2.29 -9.71,2.32 -5.17,0.04 -9.07,0.28 -12.47,-3.78 -2.81,-3.36 -2.09,-6.9 -2.33,-11.76 0.8,-0.19 0.79,0.45 1.58,0.97 1.31,0.87 3.04,1.13 4.48,0.59 0.86,-0.32 1.29,-0.91 2.02,-0.71 0.61,0.17 1.07,0.62 1.99,0.78 0.91,0.17 1.86,0.07 2.67,-0.2 1.59,-0.54 2.31,-1.46 2.92,-2.74 1.33,-0.09 3.25,0.58 5.11,-1.32 2.04,-2.09 1.57,-7.66 1.61,-10.73 -0.01,-2.01 -0.11,-11.99 0.27,-13.05 0.58,-1.61 2.85,-2.21 4.69,-1.51 2.42,0.92 1.86,3.52 1.87,6.68 0.01,4.05 -0.04,8.23 -0.16,12.28 -0.1,3.49 -0.72,9.07 1.41,11.28 2.84,2.94 7.55,0.56 10.59,1.87 1.12,0.48 2.32,2.17 2.67,3.56 0.72,2.95 -0.52,3.02 -3.07,3zm-19.98 -25.84c-0.61,-0.75 -0.61,-1.61 -1.53,-2.61 -0.62,-0.67 -1.51,-1.3 -2.71,-1.52 -3.47,-0.64 -4.66,1.91 -5.54,2.83 -1.65,-0.01 -2.57,-0.69 -4.29,0.49 -0.28,0.19 -1.18,1.09 -1.38,1.36 -0.48,0.63 -0.43,1.49 -1.24,1.66 -2.07,0.43 -2.67,0.03 -4.01,1.52 -1.08,1.19 -1.33,2.45 -1.33,4.4 0,3.77 -0.46,12.89 0.54,15.83 1.27,3.74 4.65,7.27 9.04,7.86 2.86,0.38 7.93,0.19 11.01,0.18 3.73,-0.01 5.86,-2.63 7.69,-3.52 3.2,-1.56 6.22,-1.24 10.08,-1.23 4.78,0.01 8.01,0.8 8.36,-2.85 0.29,-3.01 -2.12,-6.07 -4.41,-6.65 -3.04,-0.77 -7.86,0.84 -9.61,-1.57 -1.36,-1.88 -0.72,-7.75 -0.72,-10.42l0.17 -16.5c-0.54,-4.95 -8.95,-5.15 -9.8,-0.27 -0.37,2.11 0.35,9.88 -0.3,11.01z"/>
   <path class="fil1" d="M40.95 41.3c-0.69,-0.38 -0.76,-0.77 -1.81,-1 -0.78,-0.17 -1.68,-0.08 -2.38,0.23 -1.35,0.59 -1.98,1.98 -1.93,3.96 -0.89,-0.03 -1.24,-0.73 -2.86,-0.55 -1.02,0.11 -1.74,0.78 -2.21,1.32 -1.44,1.66 -0.52,3.7 -0.18,5.7 0.39,2.28 0.67,3.82 2.36,4.61 3.12,1.46 4.43,-1.17 4.8,-1.52 0.92,0.36 1.71,2.41 4.39,1.66 0.76,-0.21 1.48,-0.82 1.84,-1.28 0.43,-0.54 0.53,-1.07 0.68,-1.69 0.01,-0.03 0.07,-0.3 0.08,-0.31l0.1 -0.31c0.01,-0.04 0.03,-0.1 0.05,-0.15 2.29,1.29 4.78,1.22 5.64,-1.25 0.59,-1.7 -0.46,-5.33 -0.83,-7.15 -0.54,-2.63 -0.66,-4.8 -2.79,-5.64 -3.9,-1.55 -4.77,3.06 -4.95,3.36z"/>
   <path class="fil0" d="M24.73 55.72c0.21,-2.9 0.4,-7.14 -1.68,-8.67 -1.29,-0.95 -2.99,-0.44 -3.86,0.47 -1.66,1.74 -2.33,11.05 0.35,12.74 1.79,1.14 4.85,0.23 5.19,-4.55z"/>
   <path class="fil0" d="M36.96 25.91l5.39 -0.01c-0.15,-1.8 -1.33,-7.52 -1.9,-9.63 -0.21,-0.77 -0.28,-0.84 -0.86,-1.06 -0.84,2.39 -2.34,8.01 -2.63,10.7z"/>
  </g>
 </g>
</svg>
