<?xml version="1.0" encoding="UTF-8"?>
<!DOCTYPE svg PUBLIC "-//W3C//DTD SVG 1.0//EN" "http://www.w3.org/TR/2001/REC-SVG-20010904/DTD/svg10.dtd">
<!-- Creator: CorelDRAW 2020 (64 Bit) -->
<svg xmlns="http://www.w3.org/2000/svg" xml:space="preserve" width="33.6033mm" height="33.5491mm" version="1.0" style="shape-rendering:geometricPrecision; text-rendering:geometricPrecision; image-rendering:optimizeQuality; fill-rule:evenodd; clip-rule:evenodd"
viewBox="0 0 21962.53 21927.11"
 xmlns:xlink="http://www.w3.org/1999/xlink"
 xmlns:xodm="http://www.corel.com/coreldraw/odm/2003">
 <defs>
  <style type="text/css">
   <![CDATA[
    .str0 {stroke:white;stroke-width:49.8;stroke-miterlimit:22.9256}
    .fil0 {fill:white}
   ]]>
  </style>
 </defs>
 <g id="Camada_x0020_1">
  <metadata id="CorelCorpID_0Corel-Layer"/>
  <g id="_1876085702208">
   <path class="fil0" d="M11710.5 13554.98c86.8,63.66 241.43,426.01 368.16,618.42 523.45,794.56 780.38,1001.62 1433.44,1569.25l-1801.6 0 0 -2187.67zm3260.07 -2187.67l1887.42 0c-51.89,222.81 -187.25,347.12 -348.1,466.98 -607.51,452.8 -1208.54,158.17 -1539.32,-466.98zm900.77 -3302.95c418.36,0 910.11,357.9 986.65,686.33l-1887.42 0c183.4,-346.66 557.18,-686.33 900.77,-686.33zm-1973.17 1930.29c0,2523.68 2003.36,3502.03 3164.45,2349.43 364.37,-361.69 413.52,-523.78 653.26,-976.78l1930.29 0c-353.46,1517.03 -829.07,2876.29 -2195.65,3809.73 -187.64,128.23 -344.76,216.86 -555.15,302.8 -1012.46,413.85 -1849.31,282.74 -2711,-194.96 -771.1,-427.44 -1216.19,-1075.93 -1640.95,-1790.69 -912.07,-1534.94 -1019.46,-4012.28 -484.76,-5682.25 395.42,-1235.08 1046.58,-2308.39 2163.88,-2983.54 901.55,-544.76 2069.96,-555.35 2981.12,-26.67 208.75,121.11 331.69,187.58 518.94,338.95 148.49,120.06 291.04,283.92 433,424.96 311.69,309.93 494.89,604.04 727.05,988.74 99.54,164.96 506.13,1017.43 506.13,1209.72l0 986.58 -1715.85 0c-28.63,-344.31 -486.72,-912.21 -831.49,-1141.68 -1488.86,-991.16 -2943.28,614.63 -2943.28,2385.64zm-2916.94 -257.38l0 4504.03c-313.33,0 -1115.27,-98.69 -1115.27,386.07 0,499.66 636.59,386.07 1115.27,386.07l0 5962.5c-546.2,-289.08 -618.68,-428.95 -1115.27,-428.95 -283.85,0 -1014.82,572.15 -1249.98,587.05 -325.16,20.59 -756.85,-587.05 -1495.33,-587.05 -283.85,0 -1014.82,572.15 -1249.98,587.05 -325.16,20.59 -756.85,-587.05 -1495.33,-587.05 -283.85,0 -1014.82,572.15 -1249.98,587.05 -325.16,20.59 -756.85,-587.05 -1495.33,-587.05 -133.07,0 -344.18,124.31 -457.77,185.62 -161.3,87.12 -284.5,159.41 -443.06,243.33l0 -5962.5c385.81,0 729.27,71.24 729.27,-386.07 0,-405.16 -419.08,-386.07 -729.27,-386.07l0 -3903.46c0,-2393.75 1060.83,-5334.93 3433.86,-5874.53 446.27,-101.5 3883.92,-45.1 4630.57,-45.1 1558.47,0 3117.07,0 4675.6,0l-504.11 439.6c-562.8,567.83 -851.16,987.82 -1226.06,1733.76 -386.14,768.22 -757.83,2012.38 -757.83,3145.69zm-6219.82 -7163.53l14627.38 0 0 3302.95c-107.06,-78.43 -640.97,-961.35 -1423.24,-1493.63 -561.1,-381.82 -1293.51,-736.91 -2222.9,-736.91l-10981.23 0 0 -1072.4zm-729.2 1158.15c-326.4,27.19 -830.64,258.17 -1072.4,386.07 0,-1426.9 -291.43,-2465.05 611.36,-3120.47 248.17,-180.19 607.64,-268.3 1018.67,-268.3l14970.51 0c1070.57,0 1672.98,602.41 1672.98,1672.98l0 6563.02c0,682.47 -240.71,1082.86 -635.81,1380.3 -436.01,328.29 -1074.36,249.73 -1809.25,249.73 -1358.41,0 -2716.75,0 -4075.09,0 -72.68,-311.96 -72.68,-760.44 0,-1072.4 1043.77,0 2087.54,0 3131.38,0 514.43,0 1081.03,22.88 1588.66,1.5 456.07,-19.22 727.7,-380.19 727.7,-859.46l0 -5962.44c0,-575.35 -325.48,-900.83 -900.83,-900.83l-14370 0c-398.82,0 -757.18,214.05 -840.64,532.08 -50.78,193.59 -17.25,1125.99 -17.25,1398.21zm-1844.54 943.71c-343.52,230.06 -616,595.02 -870.44,931.16 -766.85,1013.18 -1317.23,2810.27 -1317.23,4130.51l0 11281.56c0,406.46 342.74,694.3 694.63,718.74 322.35,22.35 906.19,-418.49 1021.22,-418.49 280.58,0 910.64,600.58 1415.53,600.58 429.4,0 1084.56,-600.58 1372.65,-600.58 50,0 535.55,263.85 629.33,314.37 672.21,362.02 702.54,414.5 1415.92,15.03 792.01,-443.39 584.56,-416.2 1329.39,-15.03 672.21,362.02 702.6,414.5 1415.92,15.03 845.15,-473.19 625.87,-366.07 1157.43,-100.39 149.87,74.9 346.46,190.91 529.21,190.98 374.05,0.07 729.27,-318.1 729.27,-720.25l0 -4546.91 4203.78 0c1878.98,0 3285.43,-1705.79 3990.51,-3301.7 169.28,-383.06 502.02,-1416.44 513.52,-1931.6 759.79,-176.99 1544.22,-1032.46 1544.22,-1973.17l0 -7249.34c0,-983.32 -1032.79,-2016.11 -2016.11,-2016.11l-15656.9 0c-949.98,0 -1714.8,726.98 -1968.2,1420.5 -254.44,696.33 -133.66,2311.72 -133.66,3255.1z"/>
   <path class="fil0" d="M2187.67 14627.38c0,176.92 144.18,386.07 300.26,386.07 594.69,0 1544.29,140.85 1544.29,-300.26 0,-582.15 -545.68,-471.89 -1243.96,-471.89 -309.47,0 -600.58,76.8 -600.58,386.07z"/>
   <path class="fil0 str0" d="M7678.29 15013.45c604.43,0 1632.19,158.23 1479.52,-446.92 -107.38,-425.74 -737.05,-325.22 -1265.01,-325.22 -830.25,0 -670.64,772.14 -214.51,772.14z"/>
   <path class="fil0" d="M4761.42 14627.38c0,534.17 531.75,386.07 1458.47,386.07 452.8,0 656.79,-772.14 -214.51,-772.14 -488.95,0 -1243.96,-102.74 -1243.96,386.07z"/>
  </g>
 </g>
</svg>
