<?xml version="1.0" encoding="UTF-8"?>
<!DOCTYPE svg PUBLIC "-//W3C//DTD SVG 1.0//EN" "http://www.w3.org/TR/2001/REC-SVG-20010904/DTD/svg10.dtd">
<!-- Creator: CorelDRAW 2020 (64 Bit) -->
<svg xmlns="http://www.w3.org/2000/svg" xml:space="preserve" width="40.3837mm" height="33.1636mm" version="1.0" style="shape-rendering:geometricPrecision; text-rendering:geometricPrecision; image-rendering:optimizeQuality; fill-rule:evenodd; clip-rule:evenodd"
viewBox="0 0 1167.93 959.12"
 xmlns:xlink="http://www.w3.org/1999/xlink"
 xmlns:xodm="http://www.corel.com/coreldraw/odm/2003">
 <defs>
  <style type="text/css">
   <![CDATA[
    .fil0 {fill:white}
   ]]>
  </style>
 </defs>
 <g id="Camada_x0020_1">
  <metadata id="CorelCorpID_0Corel-Layer"/>
  <g id="_1876224529776">
   <path class="fil0" d="M917.66 846.57c-67.97,0 -122.44,-18.25 -187.7,-18.25 -40.32,0 -177.32,69.15 -222.27,74.93 -16.12,2.07 -28.98,2.08 -45.13,4.4 -35.52,5.11 -129.68,6.2 -143,8.21 -20.22,3.06 -77.31,-0.27 -93.18,-3.68 -16.99,-3.66 -51.04,-41.47 -67.74,-54.79l-39.37 -38.84c-21.63,-21.63 -78.23,-82.55 -77.14,-120.3 0.64,-22.37 16.63,-57.41 25.77,-73.15l28.59 -47.01c3.49,-5.26 6.3,-10.73 10.02,-16.06 13.91,-19.93 26.11,-38.43 40.6,-58.47 41.76,-57.74 43.33,-57.57 79.84,-120.89l26.8 -48.8c3.8,-7.13 6.09,-9.75 9.58,-16.49l55.83 -92.77c29.52,-40.56 31.11,-39.55 84.89,-63.71l218.09 -81.71c32.04,-9.43 131.54,-43.95 159.45,-35.11 57.29,18.16 176.06,138.09 213.92,185.01 19.71,24.42 24.35,27.63 41.96,57.11l37.53 64.14c18.97,37.37 51.23,105.93 51.23,149.51 0,66.83 -96.57,220.42 -137.76,276.75 -5.21,7.13 -9.33,11.81 -14.91,18.98 -9.84,12.65 -41.46,51 -55.88,51zm-917.66 -151.2c0,48.81 37.79,102.33 69.73,133.61 12.34,12.09 19.54,24.07 32.71,35.07l70.01 62.95c16.36,13.1 14.13,18.12 40.34,24.83 44.54,11.41 188.56,7.81 241.94,0.13 46.72,-6.72 56.61,0.05 104.27,-18.25 247.91,-95.22 114.57,-56.43 332.54,-45.38 46.92,2.38 44.37,1.83 85.33,-32.08 17.35,-14.36 58.71,-71.81 73.76,-93.09l74.73 -131.22c22.74,-49.08 42.57,-88.47 42.57,-142.53 0,-57.32 -49.58,-152.48 -77.39,-198.96 -26.78,-44.77 -36.15,-57.96 -69.38,-97.47 -4.6,-5.47 -8.26,-7.93 -12.65,-13.42 -5.56,-6.95 -6.63,-8.83 -13.28,-15.4 -67.23,-66.47 -72.74,-77.44 -144.95,-131.39 -60.59,-45.26 -92.53,-35.72 -159.99,-18.4 -48.93,12.57 -164.48,50.86 -206.13,67.61 -22.92,9.22 -42.65,16.53 -65.57,25.67 -39.9,15.91 -86.2,35.36 -115.56,66.93 -6.89,7.41 -13.48,17.27 -18.87,25.45 -29.75,45.19 -60.49,95.63 -85.15,144.26l-33.19 58.06c-46.7,69.46 -165.82,216.49 -165.82,293.01z"/>
   <path class="fil0" d="M688.24 750.12c0,12.61 8.25,20.85 20.85,20.85l99.07 0c23.47,0 96.46,-76.74 96.46,-86.03 0,-16.51 -8.09,-23.46 -23.46,-23.46 -20.74,0 -55.57,54.02 -75.91,64.87 -28.72,15.32 -117.01,-18.38 -117.01,23.77z"/>
   <path class="fil0" d="M276.34 499.85c0,23.66 28.92,30.39 40.14,11.47 4.7,-7.92 6.5,-19.05 9.06,-27.44 5.23,-17.14 23.13,-75.9 30.44,-84.27 12.07,-13.85 42.89,-17.34 42.89,-35.32 0,-46.77 -72.51,-17.12 -91.61,36.13 -5.59,15.59 -10.6,31.78 -16.29,48.88 -2.79,8.4 -14.63,44.89 -14.63,50.54z"/>
  </g>
 </g>
</svg>
