<?xml version="1.0" encoding="UTF-8"?>
<!DOCTYPE svg PUBLIC "-//W3C//DTD SVG 1.0//EN" "http://www.w3.org/TR/2001/REC-SVG-20010904/DTD/svg10.dtd">
<!-- Creator: CorelDRAW 2020 (64 Bit) -->
<svg xmlns="http://www.w3.org/2000/svg" xml:space="preserve" width="39.5814mm" height="35.1991mm" version="1.0" style="shape-rendering:geometricPrecision; text-rendering:geometricPrecision; image-rendering:optimizeQuality; fill-rule:evenodd; clip-rule:evenodd"
viewBox="0 0 18370.24 16336.35"
 xmlns:xlink="http://www.w3.org/1999/xlink"
 xmlns:xodm="http://www.corel.com/coreldraw/odm/2003">
 <defs>
  <style type="text/css">
   <![CDATA[
    .fil0 {fill:white}
   ]]>
  </style>
 </defs>
 <g id="Camada_x0020_1">
  <metadata id="CorelCorpID_0Corel-Layer"/>
  <path class="fil0" d="M3300.91 14735.95c-477.15,0 -906.46,-215.26 -1157.87,-456.73 -685.36,-658.07 -723.64,-1698.14 -75.74,-2391.43 5.06,-5.43 12.11,-13.32 17.26,-18.66l474.04 -351.15c982.25,-499.11 2415.66,202.31 2418.31,1531.67 1.86,944.61 -803.98,1686.31 -1676,1686.31zm35.88 -9759.23c-508.67,0 -864.22,-130.37 -1216.35,-469.96 -696.54,-671.66 -680.62,-1755.18 4.64,-2428.05 971.62,-954.12 2773.4,-398.3 2850.72,1183.49 43.81,896.34 -748.66,1714.53 -1639.01,1714.53zm-3336.79 -1865.73c0,802.54 155.25,1401.39 559.21,2024.14l347.9 441.42c74.68,82.57 109.67,82.57 196.09,162.72 498.83,462.58 1213.75,816.19 1946.54,816.19 630.82,0 1155.55,-42.05 1686.35,-322.93l337.55 236.51c126.66,87.62 210.66,150.84 337.41,236.65l1707.29 1198.94c105.54,69.66 282.83,181.14 344.6,265.38 -118.58,161.79 -2056.48,1465.02 -2368.18,1686.21 -57.78,40.98 -107.95,70.82 -172.56,114.5 -80.71,54.58 -115.8,89.71 -186.11,136.77 -1026.85,-543.34 -2463.74,-393.99 -3378.42,281.3 -456.64,337.09 -817.16,750.15 -1058.97,1273.2 -489.17,1058.32 -371.99,2383.64 321.03,3315.3 354.12,476.09 775.81,841.53 1327.41,1076.56 1166.78,497.11 2407.31,329.71 3384.26,-435.57 376.67,-295.08 698.12,-697.42 912.49,-1132.62 331.61,-673.43 404.71,-1639.8 186.85,-2377.23 -67.67,-228.99 -242.59,-511.68 -295.36,-709.26 121.23,-64.14 173.53,-104.38 281.58,-184.86l551.13 -381.73c176.08,-117.37 1329.13,-987.4 1427.66,-976.21 169.59,89.71 286.17,191.63 452.23,301.21 96.12,63.44 148.52,107.49 229.64,165.08l2956.17 2066.93c789.55,521.06 2011.98,1469.06 2727.22,1901.19 974.82,589.05 2095.84,458.68 3006.57,-157.52 111.25,-75.23 122.76,-81.68 217.48,-177.15 145.69,-146.85 272.85,-272.34 385.17,-440.07 -122.76,-167.54 -499.94,-373.1 -681.83,-502.17 -85.35,-60.57 -168.29,-108.56 -256.52,-174.09l-2362.57 -1655.91c-873.46,-574.62 -1765.81,-1224.42 -2619.08,-1829.95l-1178.66 -830.58c-129.21,-95.98 -390.09,-241.66 -471.91,-353.33 86.14,-117.56 4247.89,-2999.61 4247.98,-2999.65l487.97 -337.27c152.18,-107.95 306.78,-213.63 461.1,-328.22l1899.57 -1329.59c107.07,-71.33 416.45,-272.85 473.95,-351.29 -425.31,-635.09 -1260.07,-1148.12 -2045.11,-1148.12 -1266.15,0 -1565.64,398.63 -2432.32,976.21 -622.75,415.01 -1212.82,873.37 -1837.33,1284.15l-1348.76 947.53c-170.33,117.84 -295.55,209.41 -466.9,322.47l-905.72 637.09c-158.17,117.47 -836.1,628.78 -938.34,640.34 -91.34,10.4 -1751.33,-1191.89 -1958.18,-1342.63 -121.78,-88.78 -170.75,-130.6 -302.18,-200.17 26.87,-100.71 104.01,-203.24 159.19,-343.07 424.06,-1074.84 358.39,-2288.17 -348.32,-3235.15 -1031.03,-1381.62 -3018.03,-1819.32 -4490.43,-814.24 -327.25,223.38 -581.16,474.37 -820.6,793.96 -365.26,487.55 -635.23,1081.24 -635.23,1768.64z"/>
 </g>
</svg>
