<?xml version="1.0" encoding="UTF-8"?>
<!DOCTYPE svg PUBLIC "-//W3C//DTD SVG 1.0//EN" "http://www.w3.org/TR/2001/REC-SVG-20010904/DTD/svg10.dtd">
<!-- Creator: CorelDRAW 2020 (64 Bit) -->
<svg xmlns="http://www.w3.org/2000/svg" xml:space="preserve" width="12.6694mm" height="15.7694mm" version="1.0" style="shape-rendering:geometricPrecision; text-rendering:geometricPrecision; image-rendering:optimizeQuality; fill-rule:evenodd; clip-rule:evenodd"
viewBox="0 0 55.38 68.93"
 xmlns:xlink="http://www.w3.org/1999/xlink"
 xmlns:xodm="http://www.corel.com/coreldraw/odm/2003">
 <defs>
  <style type="text/css">
   <![CDATA[
    .fil1 {fill:#676767}
    .fil5 {fill:#EA4E4E}
    .fil2 {fill:#F1B919}
    .fil4 {fill:#F2B816}
    .fil3 {fill:#F2F0F0}
    .fil0 {fill:#FECD29}
    .fil6 {fill:#FFE07D}
   ]]>
  </style>
 </defs>
 <g id="Camada_x0020_1">
  <metadata id="CorelCorpID_0Corel-Layer"/>
  <g id="_2548317770016">
   <path class="fil0" d="M27.44 12.33c1.01,-0.39 1.47,1.26 1.84,2 0.47,0.97 0.63,1.95 1.77,2.14 0.89,0.15 5.1,0.16 3.75,1.9 -2.79,3.58 -3.26,0.84 -2.31,6.37 0.55,3.23 -3.3,0.02 -4.44,-0.3 -1.29,-0.37 -4.91,3.3 -5.13,0.99 -0.06,-0.6 0.43,-2.69 0.55,-3.45 0.28,-1.88 -3.76,-3.09 -2.89,-4.62 0.36,-0.64 2.26,-0.65 3.14,-0.78 1.8,-0.25 1.53,-0.32 2.24,-1.79 0.34,-0.7 0.87,-2.22 1.49,-2.45zm-15.43 -7.25c1.67,-0.59 1.45,2.02 1.56,3.26 0.1,1.08 0.82,3.73 -0.32,4.13 -1.74,0.62 -1.68,-1.96 -1.81,-3.2 -0.08,-0.81 -0.15,-1.6 -0.2,-2.42 -0.07,-1.04 -0.08,-1.48 0.77,-1.78zm-2.73 1.17c0.26,0.43 0.3,2.39 0.28,3.03 0,0.62 0.21,1.9 0.32,2.64 0.68,4.61 2.1,9.91 4.16,14.01l1.03 2.06c0.19,0 0.13,-0.04 0.13,0.16 0.52,0.54 1.26,1.81 1.78,2.49 0.71,0.93 1.29,1.56 1.94,2.32 1.81,1.96 5.04,3.04 5.98,8.48 0.23,1.34 0.13,3.17 0.13,4.72l3.18 0.03c0,-2.5 -0.1,-4.53 0.69,-6.69 1.27,-3.5 3.01,-4.29 5.05,-6.11 1.73,-1.54 3.5,-4.11 4.66,-6.26 3.61,-6.69 5.33,-14.87 5.42,-23.95l-3.67 -0.01c0,1.62 0.22,7.75 -0.2,8.67 -1.03,0.21 -0.99,-0.2 -1.5,-0.87 -0.38,-0.49 -0.69,-1.02 -1.11,-1.46 -0.22,0.12 -0.03,-0.01 -0.23,0.18 -0.83,0.77 -1.67,3.25 -2.59,1.81 -0.42,-0.53 -0.18,-7.1 -0.14,-8.32l-25.31 0 0 3.05z"/>
   <path class="fil1" d="M15.65 56.27c0,-1.12 0.3,-1.47 1.47,-1.47l21.24 0c1.98,0 1.44,1.54 1.44,5.51 0,1.05 -0.4,1.43 -1.44,1.43l-21.27 0c-1.02,0 -1.43,-0.41 -1.43,-1.43l0 -4.04zm30.8 12.65l-5.67 0 -26.25 0 -5.86 0c-0.6,-0.19 -0.87,-0.61 -0.88,-1.47 -0.02,-2.03 0.15,-2.03 2.84,-2.03 0,-3.19 0,-6.37 -0,-9.56 0,-4.77 0.12,-4.92 4.71,-4.84l24.77 -0c1.69,-0.02 3.33,-0.25 4.13,0.72 0.78,0.95 0.59,2.48 0.59,4.13 -0,3.19 0,6.37 0,9.56 1.14,0 2.35,-0.18 2.73,0.64 0.1,0.22 0.39,2.21 -0.34,2.69 -0.13,0.08 -0.39,0.14 -0.75,0.18z"/>
   <path class="fil2" d="M40.37 28l0 0zm-31.82 -28l6.24 0 30.9 0c0.87,0.01 1.4,0.03 1.49,0.05 0.76,0.2 1.37,1.01 1.06,2.02 -0.26,0.88 -0.98,1.15 -2.08,1.15l0 2.96c1.57,0 3.14,0 4.71,0 3.27,-0 4.84,1.05 4.44,4.58 -0.42,3.72 -1.71,7.23 -3.56,10.31 -0.57,0.95 -1.28,1.94 -1.95,2.77 -0.36,0.45 -0.65,0.81 -1.06,1.22 -0.43,0.43 -0.6,0.77 -1.07,1.22l-1.28 1.14c-2.39,2.23 -5.66,3.95 -8.7,5.17 -0.95,0.38 -0.95,0.22 -1.54,0.75 -1.76,1.59 -3.26,2.3 -4.49,4.79 -0.62,1.24 -0.89,1.94 -1.16,3.55 -0.18,1.09 -0.09,3.13 -0.09,4.48 5.42,0 9.69,-1.19 9.69,4.85l-24.77 0c0,-1.4 0.04,-2.14 0.59,-3.05 0.46,-0.77 1.12,-1.29 2.02,-1.61 1.2,-0.42 5.42,-0.22 7.08,-0.18l3.18 0.03c0,-2.5 -0.1,-4.53 0.69,-6.69 1.27,-3.5 3.01,-4.29 5.05,-6.11 1.73,-1.54 3.5,-4.11 4.66,-6.26 3.61,-6.69 5.33,-14.87 5.42,-23.95l-3.67 -0.01 -5.7 -0.03 0.07 8.36c-0.42,-0.53 -0.18,-7.1 -0.14,-8.32l-25.31 0c-2.79,0.17 -2.66,-2.85 -0.91,-3.18 0.06,-0.01 0.12,-0.02 0.19,-0.03zm31.82 28l0.99 -1.97c2.13,-4.25 3.44,-9.24 4.19,-13.99 0.12,-0.76 0.33,-2.09 0.34,-2.75l6.46 0c0,4.37 -2.13,8.78 -3.93,11.42 -1.94,2.84 -4.95,5.66 -8.05,7.29z"/>
   <path class="fil3" d="M15.65 56.27l0 4.04c0,1.02 0.41,1.43 1.43,1.43l21.27 0c1.04,0 1.44,-0.38 1.44,-1.43 0,-3.97 0.54,-5.51 -1.44,-5.51l-21.24 0c-1.16,0 -1.47,0.35 -1.47,1.47z"/>
   <path class="fil4" d="M18.92 32.98c-0.64,-0.76 -1.22,-1.39 -1.94,-2.32 -0.52,-0.68 -1.26,-1.96 -1.78,-2.49l-0.13 -0.16c-3.09,-1.64 -6.13,-4.46 -8.05,-7.29 -1.81,-2.67 -3.93,-7.01 -3.93,-11.42l6.47 0c0.02,-0.64 -0.01,-2.6 -0.28,-3.03 -1.08,-0.2 -5.92,-0.17 -6.74,0.06 -0.88,0.25 -1.49,0.68 -1.96,1.4 -0.68,1.04 -0.63,1.44 -0.48,2.8 0.51,4.49 1.68,7.05 3.44,10.3 0.36,0.66 0.89,1.43 1.34,2.03 0.75,1.01 2.31,3.01 3.17,3.69l1.87 1.63c1.53,1.35 4.55,3.1 6.47,3.89 0.47,0.19 2,0.87 2.52,0.92z"/>
   <path class="fil3" d="M27.44 12.33c-0.62,0.24 -1.15,1.75 -1.49,2.45 -0.71,1.46 -0.45,1.53 -2.24,1.79 -0.88,0.12 -2.78,0.14 -3.14,0.78 -0.86,1.53 3.17,2.74 2.89,4.62 -0.11,0.77 -0.61,2.85 -0.55,3.45 0.22,2.31 3.84,-1.36 5.13,-0.99 1.14,0.32 4.99,3.53 4.44,0.3 -0.94,-5.53 -0.48,-2.79 2.31,-6.37 1.35,-1.74 -2.86,-1.75 -3.75,-1.9 -1.14,-0.19 -1.29,-1.17 -1.77,-2.14 -0.36,-0.74 -0.82,-2.39 -1.84,-2z"/>
   <path class="fil5" d="M34.72 11.53c0.92,1.44 1.76,-1.03 2.59,-1.81 0.2,-0.19 0.02,-0.06 0.23,-0.18 0.42,0.44 0.73,0.96 1.11,1.46 0.51,0.67 0.48,1.08 1.5,0.87 0.42,-0.92 0.2,-7.05 0.2,-8.67l-5.7 -0.03 0.07 8.36z"/>
   <path class="fil6" d="M12.01 5.09c-0.84,0.3 -0.84,0.74 -0.77,1.78 0.05,0.81 0.12,1.6 0.2,2.42 0.13,1.23 0.07,3.81 1.81,3.2 1.13,-0.4 0.41,-3.04 0.32,-4.13 -0.11,-1.24 0.1,-3.85 -1.56,-3.26z"/>
  </g>
 </g>
</svg>
